<svg width="136" height="21" viewBox="0 0 136 21" fill="black" xmlns="http://www.w3.org/2000/svg">
<g>
<path fill-rule="evenodd" clip-rule="evenodd" d="M15.6294 19.4909C19.3546 17.3401 21.2491 13.2363 20.7662 9.21957L17.0673 11.3552C16.8003 13.3451 15.6463 15.194 13.773 16.2756C10.5658 18.1273 6.4646 17.0284 4.61288 13.8211C2.76116 10.6138 3.86007 6.51271 7.06733 4.661C9.59584 3.20116 12.6799 3.57522 14.7794 5.37048L9.07289 8.66512L8.1594 13.5234L20.1057 6.62617C19.9208 6.16171 19.7001 5.70482 19.4428 5.25907C16.5658 0.276014 10.194 -1.43132 5.21096 1.44567C0.227882 4.32265 -1.47942 10.6944 1.39755 15.6775C4.27452 20.6606 10.6463 22.3679 15.6294 19.4909Z"/>
<path d="M115.452 2.96261V12.0436C115.452 13.3747 114.95 14.5074 113.928 15.5041C112.905 16.47 111.771 16.9311 110.432 16.9311C109.087 16.9311 107.922 16.4666 106.902 15.504C105.888 14.5154 105.411 13.3857 105.411 12.0436V0.547644L101.307 2.91681V11.7534C101.307 14.318 102.168 16.5098 103.875 18.2423L103.878 18.2451L103.881 18.248C105.623 19.9795 107.814 20.8612 110.432 20.8612C113.046 20.8612 115.24 19.9812 116.952 18.2451C118.695 16.5114 119.556 14.3173 119.556 11.7534V0.593453L115.452 2.96261Z"/>
<path d="M45.1611 13.4806L44.3659 15.1255L44.3556 15.144C43.3056 17.035 41.946 18.4756 40.2689 19.4349C38.5921 20.394 36.6436 20.8459 34.4573 20.8289L34.4542 20.8289C31.5082 20.7943 28.9688 19.7845 26.8398 17.8156C24.6983 15.8352 23.6193 13.3828 23.5837 10.5372C23.548 7.65233 24.5944 5.19781 26.7308 3.15279L26.7331 3.1506L26.7354 3.14843C28.8907 1.11908 31.4624 0.0365812 34.4524 0.00149869C36.5945 -0.0329126 38.5937 0.525727 40.4356 1.62914L40.4397 1.63161L40.4438 1.63412C42.166 2.69474 43.4778 4.02503 44.249 5.70514L44.2499 5.70711L45.0943 7.57542H40.6119L40.3867 7.20322C39.1026 5.08118 37.2001 3.99065 34.5475 3.93137C32.814 3.9033 31.2827 4.49431 29.8596 5.79128L29.8569 5.79375L29.8541 5.7962C28.3827 7.1116 27.6871 8.65432 27.6871 10.4313C27.6871 12.2169 28.3573 13.736 29.7092 15.0533C31.0555 16.3334 32.645 16.96 34.4841 16.9312L34.486 16.9311L34.4879 16.9311C37.1909 16.9016 39.124 15.8591 40.4314 13.8342L40.6598 13.4806H45.1611Z"/>
<path fill-rule="evenodd" clip-rule="evenodd" d="M56.9148 0.0664602C59.7302 0.170541 62.1774 1.21981 64.1425 3.27073C66.0974 5.27866 67.1027 7.68817 67.1027 10.4635C67.1027 13.3159 66.0214 15.7955 63.8939 17.8666C61.7948 19.9099 59.2378 20.9322 56.2982 20.8286C53.4773 20.758 51.0305 19.7062 49.0673 17.691C47.1061 15.6776 46.1379 13.2654 46.1379 10.4958C46.1379 7.6182 47.214 5.1055 49.3112 3.06284C51.4122 0.983983 53.9733 -0.0382967 56.9148 0.0664602ZM56.3869 16.8994L56.3922 16.8997C58.2536 16.986 59.788 16.3945 61.0887 15.042L61.0917 15.0389L61.0947 15.0359C62.4439 13.6641 63.0607 12.1165 63.0325 10.2887C62.9714 8.54637 62.3217 7.07942 61.0936 5.82558C59.8798 4.58637 58.4587 3.99601 56.7528 3.99601H56.7464L56.7401 3.99591C54.9419 3.96721 53.4518 4.588 52.1672 5.83845C50.8895 7.08223 50.2713 8.53784 50.2413 10.3147C50.2114 12.0646 50.7737 13.5852 51.9934 14.8883C53.2154 16.1939 54.6433 16.8419 56.3816 16.8993L56.3869 16.8994Z"/>
<path d="M98.4761 20.4097H94.3063V8.36749C94.3063 7.10643 93.9272 6.0522 93.2195 5.19803C92.5435 4.38197 91.6423 3.96376 90.5113 3.96376C89.3142 3.96376 88.3032 4.34481 87.4152 5.09601C86.5911 5.82003 86.1862 6.70967 86.1862 7.81929V20.4097H81.9833V7.81929C81.9833 6.70959 81.5789 5.82319 80.726 5.10003L80.7212 5.09599L80.7165 5.09187C79.8666 4.34724 78.8595 3.96376 77.6583 3.96376C76.534 3.96376 75.6634 4.37695 74.9832 5.19803C74.282 6.04434 73.9295 7.06296 73.9295 8.36749V20.4097H69.7598V8.65771C69.7598 6.22421 70.4672 4.15176 71.9911 2.59364C73.3966 1.11935 75.2405 0.307645 77.462 0.132967C78.9707 0.0093412 80.357 0.265466 81.5954 0.913897C82.5332 1.40493 83.361 2.1076 84.0848 2.99857C84.8086 2.1076 85.6363 1.40493 86.5741 0.913897C87.8125 0.265466 89.1989 0.0093412 90.7076 0.132967C92.9326 0.307919 94.7725 1.12116 96.2077 2.58969C97.729 4.14278 98.4761 6.21298 98.4761 8.65771V20.4097Z"/>
<path d="M126.64 13.4484V14.8169C126.64 15.133 126.834 15.595 127.473 16.2173C128.05 16.7794 128.612 16.9856 129.144 16.964L129.148 16.9638L129.152 16.9637C130.072 16.9357 130.691 16.6914 131.145 16.2495C131.53 15.8752 131.75 15.34 131.779 14.57C131.791 13.9415 131.617 13.4661 131.293 13.0882C130.957 12.6963 130.408 12.3489 129.571 12.0868L129.568 12.086L127.354 11.4105C126.076 11.0195 125.042 10.3784 124.317 9.4613C123.592 8.54397 123.222 7.40934 123.167 6.10961C123.091 4.47695 123.673 3.04688 124.851 1.89963L124.856 1.89539L124.86 1.89121C126.051 0.767997 127.487 0.140286 129.173 0.0667764C130.679 -0.00776855 132.054 0.488209 133.274 1.45857C134.554 2.44956 135.267 3.70101 135.383 5.21526L135.384 5.22133L135.466 6.57577H131.216V5.40077C131.216 5.03263 131.034 4.70132 130.679 4.43908C130.316 4.17171 129.793 3.99786 129.219 3.99603C128.181 4.02378 127.359 4.79108 127.336 5.77266L127.335 5.79167L127.334 5.81064C127.298 6.28892 127.425 6.65467 127.691 6.9607C127.973 7.28598 128.459 7.59583 129.223 7.84397L131.413 8.55434L131.415 8.5553C132.781 9.0101 133.886 9.70214 134.672 10.6554C135.46 11.6109 135.887 12.7793 135.98 14.1171C136.131 16.0047 135.431 17.6723 133.951 19.041L133.948 19.0444L133.944 19.0479C132.472 20.3732 130.744 21.0013 128.801 20.8922L128.799 20.892L128.797 20.8919C126.996 20.7824 125.491 20.0439 124.272 18.7858L124.268 18.7816L124.264 18.7773C123.068 17.5043 122.471 15.9661 122.471 14.2042V13.4484H126.64Z"/>
</g>
</svg>
