<svg width="133" height="30" viewBox="0 0 133 30" fill="none" xmlns="http://www.w3.org/2000/svg">
<path d="M11.2119 30C9.08391 30 7.16871 29.5327 5.46631 28.5981C3.76391 27.6368 2.4206 26.2884 1.4364 24.5527C0.478801 22.8171 0 20.8144 0 18.5447C0 16.275 0.492101 14.2724 1.4763 12.5367C2.4871 10.8011 3.85701 9.46595 5.58601 8.53137C7.31501 7.57009 9.24351 7.08945 11.3715 7.08945C13.4995 7.08945 15.428 7.57009 17.157 8.53137C18.886 9.46595 20.2426 10.8011 21.2268 12.5367C22.2376 14.2724 22.743 16.275 22.743 18.5447C22.743 20.8144 22.2243 22.8171 21.1869 24.5527C20.1761 26.2884 18.7929 27.6368 17.0373 28.5981C15.3083 29.5327 13.3665 30 11.2119 30ZM11.2119 25.1135C12.2227 25.1135 13.167 24.8732 14.0448 24.3925C14.9492 23.8852 15.6674 23.1375 16.1994 22.1495C16.7314 21.1616 16.9974 19.9599 16.9974 18.5447C16.9974 16.4352 16.4388 14.8198 15.3216 13.6983C14.231 12.5501 12.8877 11.976 11.2917 11.976C9.69571 11.976 8.35241 12.5501 7.26181 13.6983C6.19781 14.8198 5.66581 16.4352 5.66581 18.5447C5.66581 20.6542 6.18451 22.283 7.22191 23.4312C8.28591 24.5527 9.61592 25.1135 11.2119 25.1135Z" fill="#293341"/>
<path d="M24.0077 18.5447C24.0077 16.2483 24.4732 14.2457 25.4042 12.5367C26.3352 10.8011 27.6253 9.46595 29.2745 8.53137C30.9237 7.57009 32.8123 7.08945 34.9403 7.08945C37.6801 7.08945 39.9411 7.78371 41.7233 9.17223C43.5321 10.534 44.7424 12.4566 45.3542 14.9399H39.3293C39.0101 13.9786 38.4648 13.231 37.6934 12.6969C36.9486 12.1362 36.0176 11.8558 34.9004 11.8558C33.3044 11.8558 32.0409 12.4433 31.1099 13.6182C30.1789 14.7664 29.7134 16.4085 29.7134 18.5447C29.7134 20.6542 30.1789 22.2964 31.1099 23.4713C32.0409 24.6195 33.3044 25.1936 34.9004 25.1936C37.1614 25.1936 38.6377 24.1789 39.3293 22.1495H45.3542C44.7424 24.5527 43.5321 26.462 41.7233 27.8772C39.9145 29.2924 37.6535 30 34.9403 30C32.8123 30 30.9237 29.5327 29.2745 28.5981C27.6253 27.6368 26.3352 26.3017 25.4042 24.5928C24.4732 22.8571 24.0077 20.8411 24.0077 18.5447Z" fill="#293341"/>
<path d="M57.8654 30C55.7374 30 53.8222 29.5327 52.1198 28.5981C50.4174 27.6368 49.0741 26.2884 48.0899 24.5527C47.1323 22.8171 46.6535 20.8144 46.6535 18.5447C46.6535 16.275 47.1456 14.2724 48.1298 12.5367C49.1406 10.8011 50.5105 9.46595 52.2395 8.53137C53.9685 7.57009 55.897 7.08945 58.025 7.08945C60.153 7.08945 62.0815 7.57009 63.8105 8.53137C65.5395 9.46595 66.8961 10.8011 67.8803 12.5367C68.8911 14.2724 69.3965 16.275 69.3965 18.5447C69.3965 20.8144 68.8778 22.8171 67.8404 24.5527C66.8296 26.2884 65.4464 27.6368 63.6908 28.5981C61.9618 29.5327 60.02 30 57.8654 30ZM57.8654 25.1135C58.8762 25.1135 59.8205 24.8732 60.6983 24.3925C61.6027 23.8852 62.3209 23.1375 62.8529 22.1495C63.3849 21.1616 63.6509 19.9599 63.6509 18.5447C63.6509 16.4352 63.0923 14.8198 61.9751 13.6983C60.8845 12.5501 59.5412 11.976 57.9452 11.976C56.3492 11.976 55.0059 12.5501 53.9153 13.6983C52.8513 14.8198 52.3193 16.4352 52.3193 18.5447C52.3193 20.6542 52.838 22.283 53.8754 23.4312C54.9394 24.5527 56.2694 25.1135 57.8654 25.1135Z" fill="#293341"/>
<path d="M77.6835 0V29.6395H72.0975V0H77.6835Z" fill="#293341"/>
<path d="M102.674 7.44993V29.6395H97.0479V26.8358C96.3297 27.7971 95.3854 28.5581 94.215 29.1188C93.0712 29.6529 91.821 29.9199 90.4643 29.9199C88.7353 29.9199 87.2058 29.5594 85.8758 28.8385C84.5458 28.0908 83.4951 27.0093 82.7237 25.5941C81.9789 24.1522 81.6065 22.4433 81.6065 20.4673V7.44993H87.1925V19.6662C87.1925 21.4286 87.6314 22.7904 88.5092 23.7517C89.387 24.6862 90.5841 25.1535 92.1003 25.1535C93.6431 25.1535 94.8533 24.6862 95.7311 23.7517C96.6089 22.7904 97.0479 21.4286 97.0479 19.6662V7.44993H102.674Z" fill="#293341"/>
<path d="M115.248 30C113.439 30 111.816 29.6796 110.38 29.0387C108.943 28.3712 107.8 27.4766 106.948 26.3551C106.124 25.2336 105.672 23.992 105.592 22.6302H111.218C111.324 23.4846 111.736 24.1923 112.455 24.753C113.199 25.3138 114.117 25.5941 115.208 25.5941C116.272 25.5941 117.096 25.3805 117.681 24.9533C118.293 24.526 118.599 23.9786 118.599 23.3111C118.599 22.5901 118.227 22.0561 117.482 21.7089C116.764 21.3351 115.607 20.9346 114.011 20.5073C112.361 20.1068 111.005 19.6929 109.941 19.2657C108.903 18.8385 107.999 18.1842 107.228 17.3031C106.483 16.4219 106.11 15.2336 106.11 13.7383C106.11 12.51 106.456 11.3885 107.148 10.3738C107.866 9.35914 108.877 8.55808 110.18 7.97063C111.51 7.38318 113.066 7.08945 114.849 7.08945C117.482 7.08945 119.583 7.75701 121.153 9.09212C122.722 10.4005 123.587 12.1762 123.746 14.4192H118.4C118.32 13.5381 117.947 12.8438 117.282 12.3364C116.644 11.8024 115.78 11.5354 114.689 11.5354C113.678 11.5354 112.893 11.7223 112.335 12.0961C111.803 12.47 111.537 12.9907 111.537 13.6582C111.537 14.4059 111.909 14.98 112.654 15.3805C113.399 15.7543 114.556 16.1415 116.125 16.5421C117.721 16.9426 119.038 17.3565 120.075 17.7837C121.113 18.2109 122.004 18.8785 122.749 19.7864C123.52 20.6676 123.919 21.8425 123.946 23.3111C123.946 24.5928 123.587 25.741 122.868 26.7557C122.177 27.7704 121.166 28.5714 119.836 29.1589C118.533 29.7196 117.003 30 115.248 30Z" fill="#293341"/>
<path d="M129.608 29.9199C128.598 29.9199 127.76 29.6128 127.095 28.9987C126.456 28.3578 126.137 27.5701 126.137 26.6355C126.137 25.7009 126.456 24.9266 127.095 24.3124C127.76 23.6716 128.598 23.3511 129.608 23.3511C130.593 23.3511 131.404 23.6716 132.042 24.3124C132.681 24.9266 133 25.7009 133 26.6355C133 27.5701 132.681 28.3578 132.042 28.9987C131.404 29.6128 130.593 29.9199 129.608 29.9199Z" fill="#C91F28"/>
</svg>
